<?xml version="1.0" standalone="no"?>
<!DOCTYPE svg PUBLIC "-//W3C//DTD SVG 20010904//EN"
 "http://www.w3.org/TR/2001/REC-SVG-20010904/DTD/svg10.dtd">
<svg version="1.0" xmlns="http://www.w3.org/2000/svg"
 width="512.000000pt" height="512.000000pt" viewBox="0 0 512.000000 512.000000"
 preserveAspectRatio="xMidYMid meet">

<g transform="translate(0.000000,512.000000) scale(0.100000,-0.100000)"
fill="#000000" stroke="none">
<path d="M2265 4883 c-187 -23 -454 -94 -628 -165 l-97 -40 -92 22 c-135 32
-153 19 -197 -146 -9 -34 -22 -48 -83 -90 -117 -80 -226 -171 -339 -283 -98
-99 -249 -276 -249 -293 0 -27 149 13 294 79 151 68 224 93 279 93 l43 0 11
-62 c6 -35 14 -70 17 -78 5 -12 -5 -15 -56 -15 -54 0 -78 -7 -168 -49 -58 -26
-145 -62 -195 -78 -49 -17 -98 -33 -109 -37 -15 -6 -4 -15 52 -48 l71 -41 90
39 c174 75 367 109 507 90 89 -13 201 -57 276 -110 l54 -38 33 73 c47 105 52
108 164 102 l94 -5 -5 76 c-11 196 50 354 202 521 55 60 151 145 204 178 51
33 55 44 47 127 l-7 65 -57 -53 c-31 -28 -111 -91 -178 -139 -132 -95 -173
-137 -173 -175 0 -24 -4 -21 -64 33 -60 56 -62 60 -50 84 18 37 106 117 209
189 106 75 156 117 185 154 l21 27 -38 -1 c-21 -1 -51 -4 -68 -6z m-535 -662
c73 -52 64 -168 -16 -206 -89 -42 -174 13 -174 114 0 94 110 147 190 92z"/>
<path d="M2769 4864 c30 -38 79 -79 186 -155 103 -72 191 -152 209 -189 12
-24 10 -28 -50 -84 -61 -56 -64 -57 -64 -32 0 35 -66 101 -190 188 -52 36
-123 92 -156 122 l-62 56 -7 -65 c-8 -83 -4 -94 47 -127 98 -62 232 -197 304
-305 75 -113 110 -249 102 -394 l-5 -76 94 5 c112 6 117 3 164 -102 l33 -73
54 38 c75 53 187 97 276 110 140 19 333 -15 507 -90 l90 -39 71 41 c58 33 68
42 52 48 -10 3 -59 20 -109 37 -49 16 -137 52 -195 78 -90 42 -114 49 -168 49
-51 0 -61 3 -56 15 3 8 11 43 17 78 l11 62 43 0 c55 0 128 -25 279 -93 145
-66 294 -106 294 -79 0 17 -151 194 -249 293 -113 112 -222 203 -339 283 -61
42 -74 56 -83 90 -44 165 -62 178 -197 146 l-91 -21 -113 45 c-202 81 -447
142 -652 162 l-70 7 23 -29z m738 -629 c38 -11 73 -62 73 -106 0 -101 -85
-156 -174 -114 -95 45 -84 195 17 224 32 9 41 8 84 -4z"/>
<path d="M2489 4433 c-84 -61 -185 -167 -229 -239 -57 -94 -80 -175 -79 -279
1 -138 12 -167 89 -229 55 -44 115 -114 150 -175 6 -11 19 -2 57 39 41 44 55
53 83 53 28 0 42 -9 83 -53 38 -41 51 -50 57 -39 35 61 95 131 150 175 77 62
88 91 89 229 1 150 -54 275 -179 404 -60 63 -182 161 -200 161 -4 0 -36 -21
-71 -47z m124 -357 c90 -37 93 -176 6 -222 -39 -20 -88 -18 -126 6 -41 24 -56
54 -55 106 1 94 86 148 175 110z"/>
<path d="M2020 3645 c0 -10 253 -445 259 -445 3 0 17 33 30 73 l23 73 -30 67
c-38 82 -117 168 -186 201 -58 28 -96 40 -96 31z"/>
<path d="M3032 3629 c-78 -30 -164 -114 -209 -205 l-36 -75 24 -74 c13 -41 27
-75 30 -75 6 0 259 434 259 445 0 8 -11 5 -68 -16z"/>
<path d="M1207 3630 c-71 -13 -183 -48 -253 -80 l-60 -27 8 -83 c16 -164 80
-329 168 -432 54 -63 142 -120 227 -147 l70 -23 41 21 c59 30 147 51 214 51
32 0 58 3 58 8 0 4 -9 34 -19 67 -14 44 -16 66 -9 87 12 35 27 43 104 58 l61
12 -23 43 c-35 61 -61 142 -69 213 -6 58 -10 65 -53 103 -60 52 -114 84 -188
109 -67 23 -205 33 -277 20z m210 -265 c33 -22 56 -80 49 -125 -8 -52 -64
-100 -116 -100 -52 0 -96 23 -115 60 -60 117 72 237 182 165z"/>
<path d="M3710 3630 c-75 -14 -157 -49 -217 -94 -78 -58 -89 -73 -97 -131 -11
-76 -35 -154 -65 -211 l-28 -52 61 -12 c77 -15 92 -23 104 -58 7 -21 5 -43 -9
-87 -10 -33 -19 -63 -19 -67 0 -5 26 -8 58 -8 67 0 155 -21 214 -51 l41 -21
70 23 c85 27 173 84 227 147 88 103 152 268 168 432 l8 83 -63 28 c-147 67
-339 101 -453 79z m115 -254 c90 -38 100 -177 15 -221 -82 -42 -177 7 -187 95
-5 55 22 104 70 125 41 18 60 18 102 1z"/>
<path d="M356 3518 c-123 -260 -198 -518 -227 -778 -8 -70 -19 -114 -31 -132
-22 -31 -23 -61 -4 -91 9 -15 16 -71 20 -167 14 -309 75 -581 196 -868 50
-116 49 -116 99 -15 62 122 70 156 101 427 10 95 34 191 53 217 11 15 19 14
90 -9 l77 -25 -21 -23 c-28 -29 -44 -103 -59 -261 -7 -71 -21 -159 -31 -198
-10 -38 -17 -71 -15 -73 2 -1 35 16 75 39 68 39 71 42 71 79 0 54 26 195 51
275 34 112 96 228 155 294 55 61 162 139 228 166 20 8 36 17 36 20 0 3 -16 26
-36 52 -21 27 -43 63 -51 80 -16 40 -5 73 51 146 20 26 36 49 36 52 0 3 -15
11 -34 19 -98 41 -216 137 -276 226 -78 116 -143 310 -156 470 l-7 80 -70 40
c-38 22 -71 39 -73 38 -2 -2 5 -35 15 -73 10 -39 24 -127 31 -198 15 -159 31
-232 59 -261 l22 -24 -68 -21 c-37 -12 -73 -24 -79 -27 -14 -6 -49 75 -63 146
-5 30 -15 107 -21 170 -6 63 -15 134 -20 157 -13 57 -49 151 -61 159 -5 3 -34
-45 -63 -108z m467 -850 c28 -14 57 -69 57 -106 0 -90 -99 -149 -179 -108 -40
21 -61 59 -61 110 0 94 96 149 183 104z"/>
<path d="M4681 3589 c-32 -71 -49 -148 -61 -276 -6 -65 -16 -143 -21 -173 -14
-71 -49 -152 -63 -146 -6 3 -42 15 -79 27 l-68 21 22 24 c28 29 44 102 59 261
7 71 21 159 31 198 10 38 17 71 15 73 -2 1 -35 -16 -73 -38 l-70 -40 -7 -80
c-13 -160 -78 -354 -156 -470 -61 -90 -174 -182 -273 -224 -20 -8 -37 -17 -37
-20 0 -3 16 -27 36 -53 21 -27 43 -63 51 -81 16 -39 5 -72 -51 -145 -20 -26
-36 -49 -36 -52 0 -3 15 -11 34 -19 98 -41 216 -137 276 -226 78 -116 143
-310 156 -470 l7 -80 70 -40 c38 -22 71 -39 73 -38 2 2 -5 35 -15 73 -10 39
-24 127 -31 198 -15 159 -31 232 -59 261 l-22 24 68 21 c37 12 73 24 79 27 14
6 49 -75 63 -146 5 -30 15 -107 21 -170 13 -138 23 -184 56 -267 27 -67 71
-150 83 -157 11 -7 87 176 132 315 68 211 104 417 115 654 4 92 11 148 20 162
19 30 18 60 -4 91 -13 18 -23 62 -31 132 -18 152 -57 326 -105 475 -43 128
-137 350 -169 395 l-16 24 -20 -45z m-274 -914 c40 -11 73 -62 73 -111 0 -97
-86 -151 -174 -109 -92 44 -83 189 14 222 34 11 42 11 87 -2z"/>
<path d="M1876 3548 c-20 -77 5 -231 50 -304 49 -79 71 -96 146 -110 39 -8 73
-13 74 -11 4 4 -250 446 -257 447 -4 0 -9 -10 -13 -22z"/>
<path d="M3098 3347 c-70 -122 -126 -223 -124 -224 1 -2 35 4 75 11 46 9 78
21 87 32 81 103 114 186 114 284 0 63 -9 120 -19 120 -3 -1 -63 -101 -133
-223z"/>
<path d="M2511 3345 c-82 -130 -111 -277 -76 -391 19 -63 20 -58 -20 -73 -19
-7 -48 -23 -63 -36 l-29 -24 -39 41 c-89 92 -189 131 -346 132 -58 1 -109 -2
-113 -6 -13 -13 70 -153 128 -215 62 -66 151 -119 219 -129 l38 -7 0 -77 0
-77 -38 -7 c-68 -10 -157 -63 -219 -129 -52 -56 -142 -202 -131 -213 12 -12
132 -15 198 -5 101 16 196 61 255 121 l48 49 29 -24 c15 -13 44 -29 63 -36 40
-15 39 -10 20 -73 -23 -75 -19 -165 10 -252 27 -80 101 -207 118 -201 15 5 84
123 108 186 30 77 36 192 15 265 -10 32 -16 59 -14 60 2 1 22 10 45 20 23 11
50 27 59 37 16 18 19 17 70 -31 67 -63 156 -106 254 -121 66 -10 186 -7 198 5
11 11 -79 157 -131 213 -62 66 -151 119 -219 129 l-38 7 0 77 0 77 38 7 c68
10 157 63 219 129 58 62 141 202 128 215 -4 4 -55 7 -113 6 -157 -1 -259 -41
-351 -138 l-34 -35 -29 24 c-15 13 -44 29 -63 36 -40 15 -39 10 -20 73 23 75
19 165 -10 252 -24 73 -98 204 -115 204 -5 0 -27 -29 -49 -65z"/>
<path d="M1560 2760 c-78 -17 -228 -105 -209 -124 3 -4 122 -5 263 -4 l257 3
-47 55 c-26 30 -55 58 -66 63 -33 12 -151 17 -198 7z"/>
<path d="M3392 2760 c-34 -7 -54 -21 -90 -61 -26 -29 -48 -56 -50 -60 -2 -5
114 -9 257 -9 166 0 261 4 261 10 0 16 -92 78 -148 100 -62 23 -169 33 -230
20z"/>
<path d="M1350 2480 c0 -16 91 -78 145 -99 103 -39 261 -35 295 8 8 10 30 37
48 60 l34 41 -261 0 c-166 0 -261 -4 -261 -10z"/>
<path d="M3262 2472 c57 -80 85 -102 144 -113 68 -13 149 -5 219 22 54 21 145
83 145 99 0 6 -95 10 -261 10 -250 0 -260 -1 -247 -18z"/>
<path d="M1288 2257 c-81 -28 -165 -84 -219 -146 -87 -102 -151 -267 -167
-431 l-8 -83 63 -28 c184 -84 388 -108 524 -61 74 25 138 63 197 117 36 32 41
42 47 97 8 71 35 152 69 213 l23 43 -61 12 c-77 15 -92 23 -104 58 -7 21 -5
43 9 87 10 33 19 63 19 68 0 4 -25 7 -56 7 -64 0 -160 23 -216 51 -45 23 -38
23 -120 -4z m140 -311 c33 -31 37 -39 37 -84 0 -62 -26 -101 -80 -121 -103
-40 -202 78 -150 179 20 38 59 59 113 60 35 0 49 -6 80 -34z"/>
<path d="M3710 2260 c-52 -27 -149 -50 -214 -50 -31 0 -56 -3 -56 -7 0 -5 9
-35 19 -68 14 -44 16 -66 9 -87 -12 -35 -27 -43 -104 -58 l-61 -12 23 -43 c34
-61 61 -142 69 -213 6 -55 11 -65 47 -97 22 -20 60 -50 85 -65 162 -103 398
-100 637 9 l62 28 -7 74 c-35 329 -201 555 -444 602 -20 4 -42 0 -65 -13z
m130 -295 c89 -46 74 -187 -24 -224 -33 -13 -44 -13 -79 0 -56 20 -82 58 -82
121 0 45 4 53 37 84 30 27 46 34 78 34 23 0 54 -7 70 -15z"/>
<path d="M2062 1985 c-52 -10 -69 -19 -92 -46 -52 -62 -92 -156 -98 -230 -5
-70 4 -159 16 -159 6 1 65 101 230 392 21 36 28 58 20 57 -7 -1 -41 -7 -76
-14z"/>
<path d="M2972 1992 c12 -29 254 -442 259 -442 10 0 19 57 19 120 0 96 -36
191 -103 269 -23 28 -39 36 -100 47 -85 16 -80 16 -75 6z"/>
<path d="M2146 1699 c-70 -121 -125 -223 -123 -225 2 -3 30 5 61 16 84 32 167
113 213 208 l36 75 -24 73 c-13 41 -27 74 -30 74 -3 0 -63 -99 -133 -221z"/>
<path d="M2811 1845 l-24 -74 36 -75 c47 -93 131 -175 213 -206 31 -11 58 -19
61 -17 4 5 -250 447 -257 447 -3 0 -16 -34 -29 -75z"/>
<path d="M2380 1552 c-26 -38 -73 -89 -110 -118 -77 -62 -88 -91 -89 -229 -1
-104 22 -184 79 -279 42 -71 164 -196 243 -250 l57 -39 57 39 c79 54 201 179
243 250 57 95 80 175 79 279 -1 138 -12 167 -89 229 -55 44 -115 114 -150 175
-6 11 -19 2 -57 -39 -41 -44 -55 -53 -83 -53 -28 0 -42 9 -81 51 -26 29 -49
52 -51 52 -2 -1 -23 -31 -48 -68z m247 -292 c17 -10 37 -29 43 -40 19 -36 14
-106 -10 -140 -45 -63 -155 -63 -200 1 -25 34 -30 102 -11 137 17 33 70 62
111 62 19 0 49 -9 67 -20z"/>
<path d="M1692 1449 c-206 -145 -477 -151 -785 -19 l-88 38 -71 -41 c-56 -33
-67 -42 -52 -48 11 -4 60 -20 109 -37 50 -16 137 -52 195 -78 90 -42 114 -49
168 -49 51 0 61 -3 56 -15 -3 -8 -11 -43 -17 -77 l-11 -63 -41 0 c-58 0 -103
15 -260 85 -155 69 -230 91 -352 101 -116 9 -120 6 -82 -58 93 -158 223 -323
373 -473 427 -427 994 -678 1601 -710 83 -4 105 -3 89 6 -11 6 -31 32 -43 57
-61 125 -163 237 -311 340 -106 74 -195 154 -214 192 -12 24 -10 28 50 84 58
52 64 56 64 34 0 -37 49 -87 174 -177 64 -45 143 -107 176 -138 l60 -55 0 83
0 84 -43 27 c-52 34 -149 118 -203 178 -152 167 -213 325 -202 521 l5 76 -94
-5 c-70 -4 -97 -1 -110 9 -9 8 -33 48 -52 90 l-36 75 -53 -37z m15 -334 c12
-3 34 -20 48 -36 47 -57 26 -152 -41 -184 -89 -42 -174 13 -174 114 0 48 37
97 83 110 32 9 41 8 84 -4z"/>
<path d="M3341 1414 c-47 -105 -52 -108 -163 -102 l-93 5 -1 -126 c-1 -136
-18 -208 -71 -301 -67 -116 -199 -258 -310 -333 l-62 -42 -1 -84 0 -83 58 53
c32 30 113 93 180 142 126 91 172 138 172 177 0 19 8 15 64 -36 54 -50 62 -62
53 -79 -19 -39 -94 -108 -207 -190 -64 -46 -134 -101 -158 -124 -52 -51 -126
-151 -158 -213 -13 -26 -34 -54 -46 -63 -22 -16 -17 -17 87 -10 465 28 884
169 1255 423 290 199 552 476 719 760 38 64 34 67 -82 58 -120 -10 -197 -32
-331 -93 -151 -68 -224 -93 -279 -93 l-43 0 -11 63 c-6 34 -14 69 -17 77 -5
12 5 15 56 15 54 0 78 7 168 49 89 41 142 61 304 116 16 5 5 14 -52 47 l-71
41 -88 -38 c-308 -132 -578 -126 -785 19 l-54 38 -33 -73z m166 -299 c38 -11
73 -62 73 -106 0 -76 -49 -129 -120 -129 -135 0 -165 202 -37 239 32 9 41 8
84 -4z"/>
</g>
</svg>
